<svg width="36" height="41" viewBox="0 0 36 41" fill="none" xmlns="http://www.w3.org/2000/svg">
<path opacity="0.5" d="M20.5719 39.704C26.9586 38.425 35.2167 33.8301 35.2167 21.9496C35.2167 11.1397 27.3039 3.93987 21.6139 0.63213C20.3492 -0.103379 18.8721 0.862998 18.8721 2.3238V6.05855C18.8721 9.00467 17.634 14.3821 14.1934 16.6192C12.4364 17.7613 10.5363 16.0512 10.3238 13.9673L10.1481 12.2552C9.94383 10.2652 7.9171 9.05779 6.32758 10.2714C3.46931 12.4473 0.484375 16.2678 0.484375 21.9476C0.484375 36.4759 11.2902 40.1105 16.6921 40.1105C17.0081 40.1105 17.3377 40.1003 17.681 40.0799C18.5922 39.9655 17.681 40.2822 20.5719 39.7019" fill="#F55139"/>
<path d="M10.6992 32.8454C10.6992 38.1983 15.0122 39.8532 17.6804 40.082C18.5916 39.9676 17.6804 40.2843 20.5714 39.704C22.6941 38.9542 25.0008 37.0296 25.0008 32.8454C25.0008 30.1955 23.3275 28.559 22.0179 27.7929C21.6174 27.5579 21.1516 27.8542 21.1169 28.3159C21.0025 29.7828 19.5927 30.9515 18.6345 29.836C17.7867 28.8512 17.4291 27.4108 17.4291 26.4894V25.284C17.4291 24.5607 16.6997 24.0786 16.0746 24.4504C13.7536 25.8254 10.6992 28.6571 10.6992 32.8454Z" fill="#F55139"/>
</svg>
