<svg width="24" height="25" viewBox="0 0 24 25" fill="none" xmlns="http://www.w3.org/2000/svg">
<path d="M16 3.5C17.3261 3.5 18.5979 4.02678 19.5355 4.96447C20.4732 5.90215 21 7.17392 21 8.5V16.5C21 17.8261 20.4732 19.0979 19.5355 20.0355C18.5979 20.9732 17.3261 21.5 16 21.5H8C6.67392 21.5 5.40215 20.9732 4.46447 20.0355C3.52678 19.0979 3 17.8261 3 16.5V8.5C3 7.17392 3.52678 5.90215 4.46447 4.96447C5.40215 4.02678 6.67392 3.5 8 3.5H16ZM12 8.5C10.9391 8.5 9.92172 8.92143 9.17157 9.67157C8.42143 10.4217 8 11.4391 8 12.5C8 13.5609 8.42143 14.5783 9.17157 15.3284C9.92172 16.0786 10.9391 16.5 12 16.5C13.0609 16.5 14.0783 16.0786 14.8284 15.3284C15.5786 14.5783 16 13.5609 16 12.5C16 11.4391 15.5786 10.4217 14.8284 9.67157C14.0783 8.92143 13.0609 8.5 12 8.5ZM12 10.5C12.5304 10.5 13.0391 10.7107 13.4142 11.0858C13.7893 11.4609 14 11.9696 14 12.5C14 13.0304 13.7893 13.5391 13.4142 13.9142C13.0391 14.2893 12.5304 14.5 12 14.5C11.4696 14.5 10.9609 14.2893 10.5858 13.9142C10.2107 13.5391 10 13.0304 10 12.5C10 11.9696 10.2107 11.4609 10.5858 11.0858C10.9609 10.7107 11.4696 10.5 12 10.5ZM16.5 7C16.2348 7 15.9804 7.10536 15.7929 7.29289C15.6054 7.48043 15.5 7.73478 15.5 8C15.5 8.26522 15.6054 8.51957 15.7929 8.70711C15.9804 8.89464 16.2348 9 16.5 9C16.7652 9 17.0196 8.89464 17.2071 8.70711C17.3946 8.51957 17.5 8.26522 17.5 8C17.5 7.73478 17.3946 7.48043 17.2071 7.29289C17.0196 7.10536 16.7652 7 16.5 7Z" fill="#EBE7D9"/>
</svg>
