<svg width="23" height="25" viewBox="0 0 23 25" fill="none" xmlns="http://www.w3.org/2000/svg">
<path d="M15.9085 6.32C15.2535 5.53953 14.8926 4.5374 14.8927 3.5H11.9314V15.9C11.909 16.5712 11.6377 17.2071 11.1746 17.6735C10.7115 18.1399 10.0929 18.4004 9.44932 18.4C8.08848 18.4 6.95765 17.24 6.95765 15.8C6.95765 14.08 8.54848 12.79 10.1872 13.32V10.16C6.88098 9.7 3.98682 12.38 3.98682 15.8C3.98682 19.13 6.63182 21.5 9.43973 21.5C12.4489 21.5 14.8927 18.95 14.8927 15.8V9.51C16.0934 10.4099 17.5351 10.8926 19.0135 10.89V7.8C19.0135 7.8 17.2118 7.89 15.9085 6.32Z" fill="#EBE7D9"/>
</svg>
