<svg width="24" height="23" viewBox="0 0 24 23" fill="none" xmlns="http://www.w3.org/2000/svg">
<path d="M10 14.3751L15.19 11.5001L10 8.62508V14.3751ZM21.56 6.87133C21.69 7.32175 21.78 7.9255 21.84 8.69216C21.91 9.45883 21.94 10.1201 21.94 10.6951L22 11.5001C22 13.5988 21.84 15.1417 21.56 16.1288C21.31 16.9913 20.73 17.5472 19.83 17.7867C19.36 17.9113 18.5 17.9976 17.18 18.0551C15.88 18.1222 14.69 18.1509 13.59 18.1509L12 18.2084C7.81 18.2084 5.2 18.0551 4.17 17.7867C3.27 17.5472 2.69 16.9913 2.44 16.1288C2.31 15.6784 2.22 15.0747 2.16 14.308C2.09 13.5413 2.06 12.8801 2.06 12.3051L2 11.5001C2 9.40133 2.16 7.85841 2.44 6.87133C2.69 6.00883 3.27 5.453 4.17 5.21341C4.64 5.08883 5.5 5.00258 6.82 4.94508C8.12 4.878 9.31 4.84925 10.41 4.84925L12 4.79175C16.19 4.79175 18.8 4.94508 19.83 5.21341C20.73 5.453 21.31 6.00883 21.56 6.87133Z" fill="#EBE7D9"/>
</svg>
