<svg width="28" height="20" viewBox="0 0 28 20" fill="none" xmlns="http://www.w3.org/2000/svg">
<path d="M0.786621 16.7754C0.786621 17.574 1.10388 18.34 1.66861 18.9047C2.23333 19.4694 2.99926 19.7867 3.79791 19.7867H24.8769C25.6755 19.7867 26.4415 19.4694 27.0062 18.9047C27.5709 18.34 27.8882 17.574 27.8882 16.7754V13.7641H0.786621V16.7754Z" fill="#FFCD05"/>
<path d="M0.786621 6.98872H27.8882V13.7641H0.786621V6.98872Z" fill="#ED1F24"/>
<path d="M24.8769 0.213326H3.79791C2.99926 0.213326 2.23333 0.530585 1.66861 1.09531C1.10388 1.66004 0.786621 2.42597 0.786621 3.22461L0.786621 6.98872H27.8882V3.22461C27.8882 2.42597 27.5709 1.66004 27.0062 1.09531C26.4415 0.530585 25.6755 0.213326 24.8769 0.213326Z" fill="#141414"/>
</svg>
