<svg width="162" height="58" viewBox="0 0 162 58" fill="none" xmlns="http://www.w3.org/2000/svg">
<path d="M132.601 0.248169C126.199 0.248169 120.255 2.36889 115.408 5.96492C110.561 2.36889 104.617 0.248169 98.215 0.248169C91.8134 0.248169 85.8691 2.36889 81.0222 5.96492C76.1753 2.36889 70.3224 0.248169 63.8294 0.248169C57.4278 0.248169 51.4834 2.36889 46.6365 5.96492C41.8811 2.36889 35.9367 0.248169 29.4437 0.248169C13.6226 0.248169 0.728027 13.0647 0.728027 28.8318C0.728027 44.599 13.6226 57.4155 29.4437 57.4155C35.8453 57.4155 41.7896 55.2948 46.6365 51.6988C51.4834 55.2948 57.4278 57.4155 63.8294 57.4155C70.2309 57.4155 76.1753 55.2948 81.0222 51.6988C85.7777 55.2948 91.722 57.4155 98.215 57.4155C104.617 57.4155 110.561 55.2948 115.408 51.6988C120.163 55.2948 126.108 57.4155 132.601 57.4155C148.422 57.4155 161.316 44.599 161.316 28.8318C161.316 13.0647 148.422 0.248169 132.601 0.248169ZM115.408 43.5847C111.933 39.6199 109.829 34.4564 109.829 28.8318C109.829 23.2073 111.933 18.0438 115.408 14.079C118.883 18.0438 120.986 23.2073 120.986 28.8318C120.986 34.4564 118.883 39.6199 115.408 43.5847ZM81.0222 43.5847C77.5471 39.6199 75.4436 34.4564 75.4436 28.8318C75.4436 23.2073 77.5471 18.0438 81.0222 14.079C84.4973 18.0438 86.6007 23.2073 86.6007 28.8318C86.6007 34.4564 84.4973 39.6199 81.0222 43.5847ZM46.6365 43.5847C43.1614 39.6199 41.058 34.4564 41.058 28.8318C41.058 23.2073 43.1614 18.0438 46.6365 14.079C50.1117 18.0438 52.2151 23.2073 52.2151 28.8318C52.3067 34.4564 50.1117 39.6199 46.6365 43.5847ZM6.67235 28.8318C6.67235 16.3841 16.9149 6.24151 29.4437 6.24151C34.1077 6.24151 38.4974 7.62461 42.1554 10.1141C37.7658 15.0932 35.1137 21.6398 35.1137 28.8318C35.1137 36.0239 37.7658 42.5704 42.1554 47.5495C38.4974 49.9469 34.1992 51.4222 29.4437 51.4222C16.9149 51.4222 6.67235 41.2796 6.67235 28.8318ZM51.1176 47.5495C55.5073 42.5704 58.1594 36.0239 58.1594 28.8318C58.1594 21.6398 55.5073 15.0932 51.1176 10.1141C54.7757 7.71679 59.0739 6.24151 63.8294 6.24151C68.5848 6.24151 72.883 7.62461 76.5411 10.1141C72.1514 15.0932 69.4079 21.6398 69.4079 28.8318C69.4079 36.0239 72.06 42.5704 76.5411 47.5495C72.883 49.9469 68.5848 51.4222 63.8294 51.4222C59.1653 51.4222 54.7757 49.9469 51.1176 47.5495ZM85.5033 47.5495C89.893 42.5704 92.6365 36.0239 92.6365 28.8318C92.6365 21.6398 89.9844 15.0932 85.5033 10.1141C89.1613 7.71679 93.4596 6.24151 98.215 6.24151C102.97 6.24151 107.269 7.62461 110.927 10.1141C106.537 15.0932 103.794 21.6398 103.794 28.8318C103.794 36.0239 106.446 42.5704 110.927 47.5495C107.269 49.9469 102.97 51.4222 98.215 51.4222C93.4596 51.4222 89.1613 49.9469 85.5033 47.5495ZM132.601 51.4222C127.937 51.4222 123.547 50.0391 119.889 47.5495C124.279 42.5704 127.022 36.0239 127.022 28.8318C127.022 21.6398 124.37 15.0932 119.889 10.1141C123.547 7.71679 127.845 6.24151 132.601 6.24151C145.129 6.24151 155.372 16.3841 155.372 28.8318C155.372 41.2796 145.129 51.4222 132.601 51.4222Z" fill="#0F212D"/>
</svg>
