<svg width="521" height="438" viewBox="0 0 521 438" fill="none" xmlns="http://www.w3.org/2000/svg">
<path d="M292.657 190.317L423.024 155.385L398.073 62.2656L267.705 97.1974L292.657 190.317ZM351.603 149.571L296.31 129.455L291.32 110.831L346.612 130.947L384.439 85.8798L389.429 104.504L351.603 149.571ZM119.073 436.439C108.829 439.184 99.0873 437.888 89.8463 432.553C80.6053 427.218 74.6046 419.424 71.8442 409.172L1.98052 148.437C-0.764122 138.194 0.537415 128.45 5.88513 119.206C11.2328 109.962 19.0204 103.963 29.2478 101.209L401.726 1.40361C411.969 -1.34104 421.719 -0.0411652 430.976 5.30322C440.233 10.6476 446.225 18.4368 448.954 28.6709L518.818 289.406C521.563 299.649 520.269 309.397 514.937 318.65C509.605 327.904 501.809 333.898 491.551 336.634L119.073 436.439ZM214.508 271.14C230.028 266.981 241.764 258.015 249.717 244.24C257.67 230.465 259.568 215.817 255.409 200.297C251.25 184.778 242.284 173.041 228.509 165.088C214.734 157.135 200.086 155.238 184.566 159.397C169.047 163.555 157.31 172.522 149.357 186.297C141.404 200.072 139.507 214.719 143.666 230.239C147.824 245.759 156.791 257.495 170.566 265.448C184.341 273.401 198.988 275.299 214.508 271.14ZM110.954 398.692L367.964 329.827C348.69 310.04 325.801 296.631 299.299 289.6C272.796 282.569 246.196 282.624 219.498 289.764C192.801 296.904 169.737 310.157 150.307 329.522C130.878 348.887 117.76 371.944 110.954 398.692Z" fill="#0F212D"/>
</svg>
