<svg width="377" height="300" viewBox="0 0 377 300" fill="none" xmlns="http://www.w3.org/2000/svg">
<path d="M6.34766 208.804V269.596C6.34766 274.97 8.48208 280.125 12.2814 283.925C16.0807 287.725 21.2336 289.86 26.6067 289.86H107.643V208.804M6.34766 208.804V127.748M6.34766 208.804H107.643M107.643 208.804V127.748H6.34766M6.34766 127.748V26.4281C6.34766 21.0537 8.48208 15.8995 12.2814 12.0993C16.0807 8.29902 21.2336 6.16406 26.6067 6.16406H350.751C356.124 6.16406 361.277 8.29902 365.076 12.0993C368.876 15.8995 371.01 21.0537 371.01 26.4281V66.7534M299.496 293.345L281.891 264.186L224.841 259.423L172.715 173.16L202.84 115.691L232.094 164.102C235.855 170.325 241.934 174.799 248.993 176.54C256.052 178.28 263.513 177.145 269.735 173.383C275.957 169.621 280.43 163.54 282.17 156.479C283.91 149.419 282.775 141.956 279.014 135.732L249.76 87.3011H313.292L366.168 173.99L344.45 226.373L362.076 255.513" stroke="black" stroke-width="12" stroke-linecap="round" stroke-linejoin="round"/>
</svg>
