<svg width="270" height="95" viewBox="0 0 270 95" fill="none" xmlns="http://www.w3.org/2000/svg">
<g clip-path="url(#clip0_339_3)">
<path d="M6.80668 77.5804C9.03814 77.5804 10.7938 78.1133 12.0736 79.1793C13.3534 80.2453 13.9933 81.7131 13.9933 83.5826C13.9933 85.4521 13.3534 86.9199 12.0736 87.9859C10.7938 89.0518 9.03814 89.5848 6.80668 89.5848H2.54887V94.7999H0.0876999V77.5804H6.80668ZM6.73285 87.4447C8.29158 87.4447 9.48115 87.1126 10.3015 86.4484C11.1219 85.7842 11.5321 84.829 11.5321 83.5826C11.5321 82.3362 11.1219 81.381 10.3015 80.7168C9.48115 80.0526 8.29158 79.7205 6.73285 79.7205H2.54887V87.4447H6.73285ZM29.7447 88.3549C29.7447 88.5353 29.7283 88.7731 29.6955 89.0682H19.1125C19.2602 90.2162 19.7647 91.1387 20.6261 91.8357C21.4875 92.5326 22.5581 92.8811 23.8379 92.8811C25.3967 92.8811 26.6519 92.3564 27.6035 91.3068L28.9079 92.8319C28.3173 93.5207 27.583 94.0455 26.7052 94.4063C25.8274 94.7671 24.847 94.9475 23.7641 94.9475C22.3859 94.9475 21.1635 94.6646 20.097 94.0988C19.0305 93.533 18.206 92.7417 17.6235 91.725C17.041 90.7082 16.7498 89.5602 16.7498 88.2811C16.7498 87.0183 17.0328 85.8785 17.5989 84.8618C18.165 83.845 18.9443 83.0537 19.937 82.4879C20.9297 81.9221 22.0495 81.6393 23.2965 81.6393C24.5435 81.6393 25.6551 81.9221 26.6314 82.4879C27.6076 83.0537 28.3706 83.845 28.9203 84.8618C29.4699 85.8785 29.7447 87.0429 29.7447 88.3549ZM23.2965 83.6318C22.1644 83.6318 21.2168 83.9762 20.4538 84.665C19.6909 85.3537 19.2438 86.2557 19.1125 87.3709H27.4805C27.3492 86.2721 26.9021 85.3742 26.1391 84.6773C25.3762 83.9803 24.4286 83.6318 23.2965 83.6318ZM36.0207 83.9516C36.4309 83.1972 37.038 82.6232 37.842 82.2296C38.646 81.836 39.6222 81.6393 40.7708 81.6393V83.927C40.6395 83.9106 40.459 83.9024 40.2293 83.9024C38.9495 83.9024 37.9445 84.2837 37.2144 85.0463C36.4842 85.8088 36.1192 86.8953 36.1192 88.3057V94.7999H33.7564V81.7622H36.0207V83.9516ZM49.3602 78.3429C47.9492 78.3429 47.2436 79.1055 47.2436 80.6307V81.7622H51.0338V83.7056H47.2929V94.7999H44.9301V83.7056H42.7151V81.7622H44.9301V80.6061C44.9301 79.3105 45.3075 78.2855 46.0623 77.5312C46.817 76.7768 47.8753 76.3996 49.2372 76.3996C49.7622 76.3996 50.2545 76.4652 50.7139 76.5964C51.1733 76.7276 51.5671 76.9162 51.8952 77.1622L51.1815 78.9579C50.64 78.5479 50.033 78.3429 49.3602 78.3429ZM59.4018 94.9475C58.1056 94.9475 56.9406 94.6605 55.9069 94.0865C54.8732 93.5125 54.0652 92.7212 53.4827 91.7127C52.9002 90.7041 52.609 89.5602 52.609 88.2811C52.609 87.0019 52.9002 85.858 53.4827 84.8495C54.0652 83.8409 54.8732 83.0537 55.9069 82.4879C56.9406 81.9221 58.1056 81.6393 59.4018 81.6393C60.698 81.6393 61.8589 81.9221 62.8843 82.4879C63.9098 83.0537 64.7138 83.8409 65.2963 84.8495C65.8788 85.858 66.17 87.0019 66.17 88.2811C66.17 89.5602 65.8788 90.7041 65.2963 91.7127C64.7138 92.7212 63.9098 93.5125 62.8843 94.0865C61.8589 94.6605 60.698 94.9475 59.4018 94.9475ZM59.4018 92.8811C60.2386 92.8811 60.9892 92.6884 61.6538 92.3031C62.3183 91.9177 62.8392 91.3765 63.2166 90.6795C63.594 89.9825 63.7827 89.183 63.7827 88.2811C63.7827 87.3791 63.594 86.5796 63.2166 85.8826C62.8392 85.1857 62.3183 84.6486 61.6538 84.2714C60.9892 83.8942 60.2386 83.7056 59.4018 83.7056C58.565 83.7056 57.8143 83.8942 57.1498 84.2714C56.4853 84.6486 55.9603 85.1857 55.5747 85.8826C55.1891 86.5796 54.9963 87.3791 54.9963 88.2811C54.9963 89.183 55.1891 89.9825 55.5747 90.6795C55.9603 91.3765 56.4853 91.9177 57.1498 92.3031C57.8143 92.6884 58.565 92.8811 59.4018 92.8811ZM72.446 83.9516C72.8562 83.1972 73.4632 82.6232 74.2672 82.2296C75.0712 81.836 76.0475 81.6393 77.196 81.6393V83.927C77.0648 83.9106 76.8843 83.9024 76.6546 83.9024C75.3747 83.9024 74.3698 84.2837 73.6396 85.0463C72.9095 85.8088 72.5444 86.8953 72.5444 88.3057V94.7999H70.1817V81.7622H72.446V83.9516ZM97.1561 81.6393C98.7968 81.6393 100.097 82.1148 101.057 83.066C102.017 84.0172 102.497 85.4275 102.497 87.2971V94.7999H100.134V87.5677C100.134 86.3049 99.8428 85.3537 99.2604 84.7142C98.6779 84.0746 97.8452 83.7548 96.7623 83.7548C95.5645 83.7548 94.6129 84.1279 93.9073 84.8741C93.2018 85.6202 92.849 86.6903 92.849 88.0843V94.7999H90.4863V87.5677C90.4863 86.3049 90.1951 85.3537 89.6126 84.7142C89.0301 84.0746 88.1974 83.7548 87.1145 83.7548C85.9167 83.7548 84.9651 84.1279 84.2596 84.8741C83.554 85.6202 83.2013 86.6903 83.2013 88.0843V94.7999H80.8385V81.7622H83.1028V83.7056C83.5786 83.0332 84.2021 82.5207 84.9733 82.1681C85.7445 81.8155 86.6223 81.6393 87.6067 81.6393C88.624 81.6393 89.5265 81.8442 90.314 82.2542C91.1016 82.6642 91.7087 83.2628 92.1353 84.05C92.6275 83.2956 93.3125 82.7052 94.1904 82.2788C95.0682 81.8524 96.0567 81.6393 97.1561 81.6393ZM112.341 81.6393C114.146 81.6393 115.529 82.082 116.489 82.9676C117.448 83.8532 117.928 85.1734 117.928 86.9281V94.7999H115.689V93.0779C115.295 93.6847 114.733 94.148 114.003 94.4678C113.273 94.7876 112.407 94.9475 111.406 94.9475C109.946 94.9475 108.777 94.5949 107.899 93.8897C107.021 93.1845 106.582 92.258 106.582 91.11C106.582 89.962 107.001 89.0395 107.838 88.3426C108.674 87.6456 110.003 87.2971 111.825 87.2971H115.566V86.8297C115.566 85.8129 115.27 85.034 114.68 84.4928C114.089 83.9516 113.219 83.681 112.071 83.681C111.3 83.681 110.545 83.8081 109.806 84.0623C109.068 84.3165 108.445 84.6568 107.936 85.0832L106.952 83.312C107.624 82.7708 108.428 82.3567 109.363 82.0697C110.299 81.7827 111.291 81.6393 112.341 81.6393ZM111.8 93.1271C112.702 93.1271 113.482 92.9262 114.138 92.5245C114.794 92.1227 115.27 91.5528 115.566 90.8148V88.9944H111.923C109.921 88.9944 108.92 89.6668 108.92 91.0116C108.92 91.6676 109.175 92.1842 109.683 92.5613C110.192 92.9385 110.898 93.1271 111.8 93.1271ZM130.013 81.6393C131.67 81.6393 132.987 82.1189 133.963 83.0783C134.939 84.0377 135.427 85.4439 135.427 87.2971V94.7999H133.064V87.5677C133.064 86.3049 132.761 85.3537 132.154 84.7142C131.547 84.0746 130.677 83.7548 129.545 83.7548C128.265 83.7548 127.256 84.1279 126.518 84.8741C125.779 85.6202 125.41 86.6903 125.41 88.0843V94.7999H123.048V81.7622H125.312V83.7302C125.788 83.0578 126.432 82.5412 127.244 82.1804C128.056 81.8196 128.979 81.6393 130.013 81.6393ZM146.306 94.9475C144.977 94.9475 143.791 94.6605 142.749 94.0865C141.707 93.5125 140.891 92.7212 140.3 91.7127C139.71 90.7041 139.414 89.5602 139.414 88.2811C139.414 87.0019 139.71 85.858 140.3 84.8495C140.891 83.8409 141.707 83.0537 142.749 82.4879C143.791 81.9221 144.977 81.6393 146.306 81.6393C147.487 81.6393 148.541 81.877 149.468 82.3526C150.395 82.8282 151.113 83.517 151.622 84.419L149.825 85.5751C149.415 84.952 148.906 84.4846 148.299 84.173C147.692 83.8614 147.019 83.7056 146.281 83.7056C145.428 83.7056 144.661 83.8942 143.98 84.2714C143.299 84.6486 142.766 85.1857 142.38 85.8826C141.994 86.5796 141.802 87.3791 141.802 88.2811C141.802 89.1994 141.994 90.0071 142.38 90.7041C142.766 91.4011 143.299 91.9382 143.98 92.3154C144.661 92.6925 145.428 92.8811 146.281 92.8811C147.019 92.8811 147.692 92.7253 148.299 92.4138C148.906 92.1022 149.415 91.6348 149.825 91.0116L151.622 92.1432C151.113 93.0451 150.395 93.738 149.468 94.2218C148.541 94.7056 147.487 94.9475 146.306 94.9475ZM167.004 88.3549C167.004 88.5353 166.988 88.7731 166.955 89.0682H156.372C156.519 90.2162 157.024 91.1387 157.885 91.8357C158.747 92.5326 159.817 92.8811 161.097 92.8811C162.656 92.8811 163.911 92.3564 164.863 91.3068L166.167 92.8319C165.576 93.5207 164.842 94.0455 163.964 94.4063C163.087 94.7671 162.106 94.9475 161.023 94.9475C159.645 94.9475 158.423 94.6646 157.356 94.0988C156.29 93.533 155.465 92.7417 154.883 91.725C154.3 90.7082 154.009 89.5602 154.009 88.2811C154.009 87.0183 154.292 85.8785 154.858 84.8618C155.424 83.845 156.204 83.0537 157.196 82.4879C158.189 81.9221 159.309 81.6393 160.556 81.6393C161.803 81.6393 162.914 81.9221 163.891 82.4879C164.867 83.0537 165.63 83.845 166.179 84.8618C166.729 85.8785 167.004 87.0429 167.004 88.3549ZM160.556 83.6318C159.424 83.6318 158.476 83.9762 157.713 84.665C156.95 85.3537 156.503 86.2557 156.372 87.3709H164.74C164.608 86.2721 164.161 85.3742 163.398 84.6773C162.635 83.9803 161.688 83.6318 160.556 83.6318ZM190.656 91.7004V86.0917H193.018V92.8073C192.165 93.5125 191.173 94.0537 190.04 94.4309C188.908 94.8081 187.727 94.9967 186.496 94.9967C184.757 94.9967 183.19 94.6154 181.796 93.8528C180.401 93.0902 179.306 92.0407 178.51 90.7041C177.714 89.3675 177.316 87.8629 177.316 86.1901C177.316 84.5174 177.714 83.0086 178.51 81.6639C179.306 80.3191 180.405 79.2695 181.808 78.5151C183.211 77.7608 184.79 77.3836 186.546 77.3836C187.924 77.3836 189.175 77.6091 190.299 78.0601C191.423 78.511 192.379 79.1711 193.166 80.0403L191.64 81.5655C190.262 80.2371 188.597 79.5729 186.644 79.5729C185.331 79.5729 184.154 79.8558 183.112 80.4216C182.07 80.9874 181.254 81.7745 180.663 82.7831C180.073 83.7917 179.777 84.9274 179.777 86.1901C179.777 87.4365 180.073 88.564 180.663 89.5725C181.254 90.5811 182.07 91.3724 183.112 91.9464C184.154 92.5204 185.323 92.8073 186.619 92.8073C188.162 92.8073 189.507 92.4384 190.656 91.7004ZM214.431 81.6393C216.071 81.6393 217.372 82.1148 218.332 83.066C219.291 84.0172 219.771 85.4275 219.771 87.2971V94.7999H217.409V87.5677C217.409 86.3049 217.117 85.3537 216.535 84.7142C215.952 84.0746 215.12 83.7548 214.037 83.7548C212.839 83.7548 211.887 84.1279 211.182 84.8741C210.476 85.6202 210.124 86.6903 210.124 88.0843V94.7999H207.761V87.5677C207.761 86.3049 207.47 85.3537 206.887 84.7142C206.305 84.0746 205.472 83.7548 204.389 83.7548C203.191 83.7548 202.24 84.1279 201.534 84.8741C200.829 85.6202 200.476 86.6903 200.476 88.0843V94.7999H198.113V81.7622H200.377V83.7056C200.853 83.0332 201.477 82.5207 202.248 82.1681C203.019 81.8155 203.897 81.6393 204.881 81.6393C205.899 81.6393 206.801 81.8442 207.589 82.2542C208.376 82.6642 208.983 83.2628 209.41 84.05C209.902 83.2956 210.587 82.7052 211.465 82.2788C212.343 81.8524 213.331 81.6393 214.431 81.6393ZM231.782 81.6393C233.045 81.6393 234.177 81.918 235.178 82.4756C236.179 83.0332 236.963 83.8122 237.529 84.8126C238.095 85.8129 238.378 86.9691 238.378 88.2811C238.378 89.593 238.095 90.7533 237.529 91.7619C236.963 92.7704 236.179 93.5535 235.178 94.1111C234.177 94.6687 233.045 94.9475 231.782 94.9475C230.814 94.9475 229.928 94.7589 229.124 94.3817C228.32 94.0045 227.655 93.4551 227.13 92.7335V94.7999H224.866V76.5472H227.229V83.7302C227.754 83.0414 228.41 82.5207 229.198 82.1681C229.985 81.8155 230.847 81.6393 231.782 81.6393ZM231.585 92.8811C232.422 92.8811 233.172 92.6884 233.837 92.3031C234.501 91.9177 235.026 91.3765 235.412 90.6795C235.798 89.9825 235.99 89.183 235.99 88.2811C235.99 87.3791 235.798 86.5796 235.412 85.8826C235.026 85.1857 234.501 84.6486 233.837 84.2714C233.172 83.8942 232.422 83.7056 231.585 83.7056C230.765 83.7056 230.018 83.8942 229.345 84.2714C228.673 84.6486 228.147 85.1857 227.77 85.8826C227.393 86.5796 227.204 87.3791 227.204 88.2811C227.204 89.183 227.393 89.9825 227.77 90.6795C228.147 91.3765 228.673 91.9177 229.345 92.3031C230.018 92.6884 230.765 92.8811 231.585 92.8811ZM255.089 77.5804H257.55V94.7999H255.089V87.1249H245.195V94.7999H242.734V77.5804H245.195V84.9848H255.089V77.5804Z" fill="#EBE7D9"/>
</g>
<g clip-path="url(#clip1_339_3)">
<path d="M139.577 19.6248C139.577 25.4106 138.012 30.3698 134.881 34.5025C131.75 38.6352 127.409 41.5576 121.857 43.2697L132.666 62.3981H117.515L107.769 45.0408H95.5417L92.0862 62.3981H77.644L90.0483 0.407806H115.3C122.979 0.407806 128.945 2.0904 133.198 5.45559C137.451 8.82078 139.577 13.5439 139.577 19.6248ZM109.984 33.6169C114.768 33.6169 118.475 32.5247 121.103 30.3403C123.732 28.1559 125.046 25.0268 125.046 20.9532C125.046 18.0013 124.042 15.7873 122.034 14.3114C120.025 12.8354 117.161 12.0974 113.439 12.0974H102.098L97.7567 33.6169H109.984ZM189.815 62.3981L186.891 49.1145H158.006L149.943 62.3981H134.615L174.752 0.407806H188.929L204.168 62.3981H189.815ZM164.651 38.2219H184.498L179.271 14.3114L164.651 38.2219ZM267.519 11.9203H235.09L231.812 28.3035H260.608L258.216 39.8159H229.597L225.078 62.3981H210.636L223.04 0.407806H269.911L267.519 11.9203Z" fill="#EBE7D9"/>
</g>
<g clip-path="url(#clip2_339_3)">
<path d="M0.0876999 62.3996L33.7969 0.409302H47.3596L13.6504 62.3996H0.0876999ZM30.3733 62.3996L64.0825 0.409302H77.6452L43.936 62.3996H30.3733Z" fill="#EBE7D9"/>
</g>
<defs>
<clipPath id="clip0_339_3">
<rect width="257.463" height="18.5971" fill="white" transform="translate(0.0876999 76.3996)"/>
</clipPath>
<clipPath id="clip1_339_3">
<rect width="192.267" height="61.9903" fill="white" transform="translate(77.6452 0.409302)"/>
</clipPath>
<clipPath id="clip2_339_3">
<rect width="77.5575" height="61.9903" fill="white" transform="translate(0.0876999 0.409302)"/>
</clipPath>
</defs>
</svg>
