<svg width="52" height="64" viewBox="0 0 52 64" fill="none" xmlns="http://www.w3.org/2000/svg">
<path fill-rule="evenodd" clip-rule="evenodd" d="M40.7297 54.3925C36.8246 57.8532 33.4628 59.7184 26.3808 63.3318C19.7885 60.4154 15.4858 57.5407 11.7544 54.7094C6.59794 50.8046 2.89391 44.464 2.57256 40.5754L0 3.56366C17.4277 -0.84278 35.9648 -0.742523 52 3.85961L49.3898 40.4965C49.0575 43.8146 46.0057 50.2658 40.7297 54.3925ZM46.4041 39.2827L48.7596 6.56652C34.9593 2.29203 18.4293 2.22864 3.19895 6.11727L5.60303 39.2617C5.85344 42.7063 8.40437 47.9743 13.2945 52.0111C16.2373 54.4417 22.0032 58.5209 26.2616 60.0847C31.1684 57.6702 35.6282 54.6691 39.1641 51.7052C43.5481 47.821 46.1373 42.9919 46.4041 39.2827ZM38.598 50.8411C35.209 53.6841 30.6459 56.8703 26.2616 58.9043C22.3455 57.7261 16.558 53.3827 13.773 51.0475C8.91548 46.9683 6.94092 42.6997 6.64192 38.6622L4.28111 7.02405C18.7826 3.32043 34.6113 3.32043 47.7632 7.39372L45.4301 38.6095C45.0928 42.7624 43.1072 46.7303 38.598 50.8411ZM5.36504 7.63902L5.83287 13.0918C19.6761 9.72614 34.1779 10.0645 46.215 13.6044L46.7318 8.05658C34.2588 4.33677 19.116 4.13592 5.36504 7.63902ZM39.7898 9.66275L36.6675 9.16078L36.5476 10.5874L35.5307 10.4393L35.7698 6.65644L36.809 6.80459L36.7001 8.25744L39.8661 8.7539L39.9693 7.30105L41.0298 7.49639L40.7092 11.2899L39.6756 11.1053L39.7898 9.66275ZM24.7215 8.37906C24.3406 8.37906 24.0359 8.2788 23.8348 7.95116C23.661 7.68174 23.661 6.80459 23.8348 6.51416C24.0253 6.17618 24.3679 6.08109 24.6509 6.08109L29.0785 6.08626L29.0888 7.01613L24.901 7.01061C24.6942 7.01061 24.6889 7.45987 24.9173 7.45987H28.2188C28.6054 7.45987 28.9477 7.68691 29.0562 7.98286C29.1761 8.29982 29.1544 9.01849 29.0562 9.31444C28.964 9.61038 28.6157 9.77403 28.1805 9.77403H23.8132L23.8075 8.8228H27.6963C27.7538 8.8184 27.8074 8.79311 27.8466 8.75199C27.8857 8.71087 27.9074 8.65693 27.9074 8.60093C27.9074 8.54493 27.8857 8.49099 27.8466 8.44987C27.8074 8.40874 27.7538 8.38346 27.6963 8.37906H24.7215ZM22.16 8.757C22.159 8.70968 22.1484 8.66301 22.1287 8.61973C22.109 8.57645 22.0806 8.53743 22.0451 8.50495C22.0097 8.47248 21.9679 8.4472 21.9223 8.43062C21.8766 8.41403 21.8281 8.40645 21.7794 8.40834L18.8418 8.61437L18.9014 10.0304L17.9494 10.1254L17.748 6.39013L22.1216 6.07282C22.6874 6.03079 23.019 6.44284 23.046 6.78633C23.0786 7.19321 23.0949 7.7162 22.7682 7.9329C23.0406 8.12824 23.1112 8.41902 23.1166 8.8259L23.1275 9.7823L22.1756 9.81916L22.16 8.757ZM21.5361 7.54462C21.9113 7.52361 21.8787 6.9579 21.5361 6.98994L18.74 7.19597L18.7727 7.71378L21.5361 7.54462ZM12.3765 7.04851C13.2739 6.84249 15.1123 6.55722 16.0753 6.48832C16.5158 6.45697 16.8584 6.67884 16.9183 7.01165C17.0599 7.77787 17.1471 8.57027 17.0492 9.63243C17.0219 9.93871 16.7499 10.1819 16.3909 10.256C15.1566 10.5203 13.7691 10.6629 12.7408 10.758C12.4798 10.7845 12.0665 10.5837 11.9956 10.2667C11.8161 9.49497 11.7509 8.4173 11.8051 7.67761C11.8271 7.40234 12.0882 7.1119 12.3765 7.04851ZM15.8702 9.32374C15.9951 9.29755 16.0497 9.16526 16.0607 9.07017C16.1043 8.77939 16.066 8.01869 15.9951 7.76477C15.9735 7.66452 15.8866 7.60113 15.6908 7.61697C15.1577 7.64867 13.7485 7.84436 13.0526 7.99216C12.8678 8.03453 12.7969 8.13996 12.7862 8.23505C12.7536 8.48345 12.8295 9.16491 12.8951 9.54561C12.9114 9.63553 13.0313 9.69858 13.1235 9.69376C14.0642 9.61968 15.174 9.47188 15.8702 9.32374ZM31.2953 7.20596C31.0882 7.20045 30.947 7.32206 30.9311 7.42783C30.8818 7.73962 30.8651 8.14099 30.8651 8.66432C30.8651 8.73288 30.985 8.92306 31.0882 8.93891C32.0242 9.06569 33.8406 9.22452 34.8305 9.28791L34.7709 10.2653C33.4707 10.2074 32.1108 10.0066 30.7023 9.91115C30.2401 9.87945 29.9028 9.63656 29.8862 9.2035C29.8592 8.48999 29.9028 7.41198 30.033 6.78357C30.1203 6.39771 30.5005 6.1972 30.9307 6.20753C32.2303 6.25508 33.2639 6.36601 34.9667 6.58788L34.9015 7.56047C34.0747 7.49122 32.5084 7.2535 31.2953 7.20596ZM10.0097 7.4895C11.326 7.18839 11.5271 9.46017 10.4282 9.72442L7.36052 10.4696L7.50736 11.9383L6.54474 12.1871L6.20211 8.36114L10.0097 7.4895ZM9.99374 8.97749C10.3091 8.90893 10.2658 8.35976 9.92812 8.42832L7.15941 9.07809L7.22503 9.6438L9.99374 8.97749ZM42.5454 10.2291L42.4801 10.842L45.5205 11.5869L45.4389 12.443L41.3593 11.508L41.7133 7.6559L45.8199 8.62298L45.7277 9.52115L42.6706 8.80247L42.611 9.45259L45.6461 10.1709L45.5698 10.9316L42.5454 10.2291ZM13.121 21.1922C12.6968 21.7417 12.3053 22.5872 12.1205 23.3055C12.0548 23.5487 12.0548 23.6383 12.0988 23.7968C12.501 23.6225 13.0235 23.4533 13.3278 23.3582C13.4477 23.0998 13.5126 22.8035 13.6162 22.5658C13.779 22.1961 13.8826 22.0373 14.0514 21.7786C14.5355 21.0496 15.5581 20.3309 16.314 20.3467C16.0635 20.5579 15.5414 21.0864 15.335 21.4034C15.1665 21.6676 15.0087 21.9529 14.8888 22.2488C14.7856 22.5134 14.753 22.7084 14.7257 22.9251C15.1172 22.8142 15.5035 22.735 15.7535 22.7191C15.9224 22.6292 15.9766 22.4545 16.0692 22.2909C16.3572 21.7679 16.923 21.1812 17.2823 20.9913C17.5703 20.838 17.9948 20.6902 18.2992 20.7853C17.9728 21.023 17.6302 21.4034 17.478 21.6308C17.3202 21.8737 17.0645 22.3443 17.0755 22.5658C17.3422 22.5872 17.7228 22.5658 17.8753 22.5289L17.8586 21.7996L25.6749 21.7941L25.6696 11.4064C19.5881 11.4064 12.9249 11.9666 5.85912 13.8845L7.31689 33.3966H17.853V29.5827C17.4287 29.2764 15.4595 29.0542 14.2468 29.5138C13.9531 29.6247 12.9958 30.0264 12.5606 30.3589L11.3369 31.2998C11.2171 31.3949 11.2064 31.6009 11.2064 31.759C11.2064 32.1077 10.7875 32.372 10.5538 32.2979C10.3633 32.2345 10.1023 32.1976 9.86286 32.2507C9.60713 32.3031 9.37906 31.9909 9.35707 31.8121C9.32444 31.5899 9.50427 31.2998 9.51491 31.2044C9.5259 31.1144 9.46596 30.7603 9.80292 30.5439C9.95508 30.4492 10.1672 30.454 10.3197 30.5336C10.364 30.5587 10.4166 30.5663 10.4665 30.5549C10.5212 30.5336 10.668 30.4071 10.706 30.3754C10.7223 30.1643 10.6896 29.8311 10.7116 29.6464C10.7606 29.2871 10.7822 29.0811 10.8964 28.7321C10.9943 28.431 11.2064 27.9927 11.3639 27.744C11.6469 27.2951 12.207 26.8617 12.6262 26.8985C12.4627 27.1101 12.4085 27.221 12.2889 27.4377C12.0658 27.8339 11.8591 28.4892 11.7615 28.9329C11.6959 29.2182 11.6636 29.4404 11.6799 29.7412C12.0009 29.509 12.3379 29.3184 12.561 29.1972C12.6642 28.6738 12.8767 28.1088 13.1047 27.6916C13.3768 27.1893 14.111 26.645 14.5902 26.6873C14.1386 27.1628 13.8173 27.8232 13.6978 28.246C13.6488 28.4148 13.5889 28.6108 13.6165 28.7162C13.7957 28.6211 14.166 28.526 14.3451 28.5102C14.465 28.2198 14.6281 27.8708 14.7643 27.6647C15.1885 27.0305 15.8575 26.645 16.2384 26.6608C15.939 27.0518 15.6833 27.4057 15.4985 27.929C15.4439 28.082 15.4169 28.246 15.4169 28.3252C15.6507 28.2883 16.0153 28.2883 16.1621 28.2883C16.4342 28.0506 16.6296 27.765 16.9563 27.5221C17.2283 27.3157 17.7341 27.036 17.8537 27.0146V23.8075C17.8537 23.7386 16.9889 23.6755 16.559 23.7282C15.4169 23.8605 12.5613 24.7322 11.3536 25.5408C11.3263 25.6097 11.332 25.9952 11.25 26.1747C11.1795 26.3383 11 26.5075 10.8262 26.5816C10.5162 26.7139 10.1569 26.3121 9.99906 26.3704C9.8359 26.4286 9.48795 26.5657 9.11233 26.307C8.94386 26.1909 8.85696 25.8629 8.91655 25.6203C8.97117 25.4457 9.12333 25.3086 9.24286 25.1976C9.35175 25.0918 9.27549 24.685 9.66671 24.4421C9.93912 24.2729 10.314 24.4104 10.6027 24.5582C10.6614 24.54 10.7152 24.5094 10.7602 24.4686C10.7982 24.3573 10.8581 24.0193 10.9127 23.7551C10.978 23.4695 11 23.2848 11.0869 23.0209C11.3047 22.3818 11.8264 21.4623 12.3709 20.9813C12.8004 20.6113 13.4693 20.3157 13.9645 20.3474C13.9152 20.4205 13.3009 20.9545 13.121 21.1922ZM14.3784 14.9377C14.792 14.3779 15.8798 13.5324 16.7176 13.5803C16.2604 13.9658 15.8578 14.3937 15.5751 14.8482C15.2056 15.4349 14.9062 16.1691 14.8409 16.7348C15.1183 16.6342 15.7709 16.4547 16.1462 16.3754C16.4782 15.6726 16.9134 14.896 17.4522 14.4785C17.8381 14.1774 18.3928 13.9186 18.9099 13.9765C18.79 14.1405 18.5943 14.2673 18.4474 14.3992C18.181 14.6263 17.9963 14.9329 17.8491 15.2447C17.7402 15.4769 17.5554 16.1746 17.5497 16.2063C17.925 16.2011 18.5886 16.2431 18.7301 16.2855C19.171 15.7253 20.134 14.9115 21.2867 15.0966C20.7862 15.3605 19.8726 16.1315 19.9272 16.5546C20.6777 17.0252 21.7982 18.0129 21.8471 18.9273C21.336 18.4095 20.4929 17.8968 20.0683 17.7542C19.0511 17.4055 17.8381 17.358 16.8265 17.5375C14.7161 17.9234 12.8504 18.8109 11.061 19.852C11.0177 20.1318 10.8595 20.5545 10.729 20.6975C10.5985 20.8401 10.4027 20.9772 10.1906 21.0089C9.92422 21.0513 9.65182 20.9455 9.42375 20.8294C9.27656 20.7502 8.89065 20.8508 8.64592 20.7236C8.47744 20.6389 8.21603 20.4012 8.28697 20.0263C8.34656 19.6935 8.68919 19.4927 8.73814 19.1757C8.80872 18.7106 9.15703 18.5097 9.3365 18.4784C9.53229 18.4415 9.73375 18.5049 9.91287 18.5842C9.98913 18.621 10.0704 18.6844 10.1416 18.7058C10.2122 18.6844 10.3154 18.6 10.3754 18.5738C10.3917 18.5208 10.5715 17.554 10.6691 17.1313C10.767 16.7086 10.9354 16.3489 11.077 15.953C11.5015 14.7803 12.8121 13.5965 13.8623 13.6599C13.8077 13.734 13.4704 13.9717 13.0026 14.5002C12.2467 15.3612 12.0563 16.2755 11.7732 17.8448C12.3553 17.5806 12.8611 17.3904 13.3888 17.2054C13.5147 16.719 13.6821 16.2436 13.8893 15.7842C14.0251 15.4872 14.1883 15.1968 14.3784 14.9377ZM46.0792 16.2369L26.6393 16.2531L26.656 21.8113L45.6443 21.8006L46.0792 16.2369ZM28.8714 45.0152C28.6483 45.1262 28.3713 45.0576 28.2571 45.0097C28.0609 44.9305 27.9308 44.7345 27.9141 44.5078C27.8981 44.3283 28.0776 44.1116 28.1155 43.9155C28.1315 43.8363 28.045 43.4459 28.3872 43.2447C28.4532 43.2079 28.6483 43.139 28.7841 43.1607C28.9207 43.1869 29.0292 43.2716 29.1651 43.2926C29.3499 43.229 29.5269 43.1457 29.6929 43.0442C29.8017 42.637 29.8833 42.1674 29.9372 41.7495C28.964 42.2198 27.6906 42.5368 26.6085 42.5791L26.6141 57.7805C31.1559 55.5397 36.1383 51.8733 38.2593 49.8599C41.692 46.6104 44.0035 43.3188 44.3568 38.5741L44.6774 34.252L34.3595 34.2413C34.3595 36.6926 33.5164 39.2503 31.1063 41.0994C30.9704 41.6331 30.9055 42.5312 30.9158 42.5529C31.2478 42.4203 31.5582 42.3045 31.8302 42.2253C31.8519 42.1936 32.2381 41.3747 32.4123 41.1528C32.8202 40.5399 33.3696 40.0162 34.0382 39.6676C34.4574 39.4615 34.9685 39.2714 35.42 39.4354C34.827 39.7099 34.3641 40.2064 34.0871 40.4917C33.8314 40.7563 33.5324 41.1469 33.3965 41.5487C33.378 41.6182 33.3634 41.6887 33.3529 41.7598C33.6306 41.6751 34.5166 41.5487 34.8866 41.5008C34.9302 41.4953 35.0444 41.2579 35.1317 41.1414C35.2398 40.9988 35.3055 40.9092 35.4793 40.7187C35.9255 40.2484 36.6813 39.7465 37.4155 39.8574C37.0136 40.1058 36.5724 40.502 36.2191 41.1252C36.1698 41.2207 36.1049 41.3526 36.1319 41.4105C36.2408 41.4319 36.7796 41.4212 37.1059 41.4584C37.4808 41.2317 37.8784 41.0305 38.3079 40.9409C38.7921 40.8352 39.4234 40.9196 39.6735 41.1414C39.3798 41.1252 39.1021 41.1783 38.836 41.2786C38.6835 41.3371 38.3788 41.4742 38.2646 41.6641C38.5526 41.7433 39.0265 42.0448 39.3252 42.288C39.5323 42.4568 39.7824 42.7004 39.9402 42.9219C40.3371 43.4456 40.419 44.3855 40.2062 44.6659C40.1466 44.5016 40.0814 44.3383 39.9888 44.1849C39.7983 43.8735 39.499 43.5348 39.2432 43.3498C38.0089 42.4361 36.2305 42.3883 34.7777 42.6735C33.532 42.9219 31.2854 43.3767 29.817 44.3906C29.8549 44.5701 29.7407 44.8716 29.5726 44.9873C29.3499 45.1469 29.0349 44.9305 28.8714 45.0152ZM31.2953 46.7237C31.4581 46.4808 31.6543 46.127 31.7518 45.9734C32.0948 45.4397 32.59 45.0435 32.9266 44.8898C33.3894 44.6731 34.1339 44.5467 34.4659 44.7048C34.1016 44.7896 33.8243 44.9532 33.5689 45.1276C33.3079 45.3026 32.7957 45.7567 32.6655 45.9472C32.5187 46.1584 32.4211 46.3482 32.3828 46.4491C32.7957 46.3589 33.2912 46.2848 33.5466 46.2848C33.7313 46.0574 34.2212 45.5138 34.5858 45.2599C34.8795 45.0587 35.5052 44.8581 35.8964 45.0218C35.5215 45.1382 34.8578 45.6457 34.6128 46.0102C34.5588 46.0943 34.5095 46.1846 34.4985 46.2318C34.7 46.2479 35.0806 46.2848 35.2877 46.311C35.3094 46.311 35.8751 45.9734 36.1308 45.9045C36.4628 45.8142 37.0066 45.6984 37.3495 46.0526C37.0995 46.0574 36.8654 46.0788 36.6802 46.1584C36.4135 46.2741 36.2993 46.3589 36.1801 46.5225C36.7019 46.7923 37.2463 47.0724 37.567 47.5688C37.6812 47.7432 37.855 48.1556 37.7574 48.4246C37.5939 48.2241 37.3708 48.0284 37.1913 47.9282C36.9356 47.7855 36.7508 47.6484 36.4405 47.532C35.4672 47.1782 34.1946 47.0831 33.177 47.215C31.8607 47.3787 30.2451 48.0129 29.4187 48.5621C29.4726 48.8105 29.3481 49.1009 29.2013 49.1698C28.8909 49.3232 28.5923 49.0641 28.5376 49.0803C28.456 49.1065 28.2056 49.1912 28.0265 49.1171C27.8463 49.0486 27.7328 48.7416 27.8034 48.5466C27.8573 48.3985 28.0758 48.1873 28.0758 48.1873C28.0425 47.8648 28.2603 47.6698 28.5593 47.6322C28.7285 47.6167 28.8473 47.7432 28.9838 47.77C29.1087 47.7115 29.1959 47.6698 29.2608 47.6374C29.3371 47.3735 29.4513 47.1037 29.5276 46.8819C29.6524 46.507 29.8372 46.1739 30.0713 45.8256C30.4086 45.3236 31.0073 44.8478 31.7192 44.8378C31.5018 45.0015 31.3762 45.0914 31.2404 45.255C31.007 45.5403 30.8268 45.7994 30.664 46.1057C30.5172 46.3754 30.3806 46.7764 30.3593 47.1306C30.6672 46.9862 30.9793 46.8505 31.2953 46.7237ZM31.19 49.5815C31.3748 49.5075 31.5702 49.4551 31.7664 49.4765C31.3092 49.761 30.8906 50.1783 30.7764 50.6754C30.7654 50.7278 30.7654 50.8335 30.8144 50.8652C30.9446 50.8335 31.2765 50.765 31.3638 50.7226C31.4177 50.6117 31.5536 50.4373 31.6465 50.3209C31.9728 49.8989 32.441 49.4765 33.0879 49.6346C32.6634 49.8196 32.4186 50.078 32.2339 50.4056C32.2012 50.4642 32.1799 50.5752 32.2229 50.5752C32.3317 50.5752 32.7453 50.559 32.8049 50.559C32.9954 50.3953 33.5505 50.0832 33.9314 50.1996C33.741 50.2861 33.5664 50.4022 33.4146 50.5435C33.3767 50.5851 33.3274 50.6382 33.3171 50.7016C33.6537 50.8652 33.953 51.0502 34.2308 51.2831C34.3776 51.4044 34.5897 51.6318 34.7199 52.0225C34.3936 51.7479 33.3274 51.2559 32.7457 51.2297C32.3647 51.2142 31.8923 51.2828 31.6525 51.3355C30.7332 51.5367 29.7868 51.9384 28.9764 52.3873C28.9821 52.5407 28.9544 52.725 28.7756 52.868C28.6557 52.9634 28.3947 53.0106 28.2961 52.8735C28.2422 52.7994 27.8882 52.879 27.8126 52.7839C27.8126 52.7839 27.7197 52.6468 27.7087 52.4824C27.6984 52.3081 27.8176 52.2027 27.9159 52.1124C27.9428 52.0807 27.9375 51.7855 28.1659 51.6845C28.3071 51.6211 28.4486 51.6428 28.5685 51.7169C28.6178 51.69 28.6557 51.6638 28.6884 51.6428C28.7153 51.299 28.7806 50.982 28.9115 50.6389C29.0909 50.1524 29.6783 49.5609 30.1841 49.5819C29.8411 49.9412 29.5641 50.4377 29.4712 50.8504C29.4442 50.9824 29.4339 51.2415 29.4339 51.3624C29.5549 51.2904 29.6822 51.2287 29.8142 51.1781C29.8688 51.0509 30.0263 50.734 30.1078 50.5913C30.3136 50.2206 30.7764 49.7455 31.19 49.5815ZM7.83722 39.1332C7.90249 40.9716 8.675 43.1913 9.73552 44.7283H25.5586L25.526 42.5836C23.4918 42.5836 20.3858 41.2782 19.1564 39.1439L7.83722 39.1332ZM18.7152 34.3381C18.7152 44.1126 33.4338 44.1126 33.4338 34.4384L33.4394 22.6771L18.7152 22.6719V34.3381ZM23.4571 29.6537C23.6312 29.4687 23.7837 29.2258 23.816 29.0197C23.8433 28.8506 23.3538 28.8613 23.1744 28.967C23.0765 29.0249 22.9839 29.1414 22.9076 29.2471C22.8534 29.3264 22.6576 29.3898 22.5597 29.3002C22.4561 29.2051 22.6413 29.0411 22.6356 28.9409C22.6356 28.7717 22.3036 29.0253 22.1514 28.9564C22.0482 28.9088 22.0425 28.7558 22.1135 28.6659C22.1514 28.6184 22.2603 28.6394 22.3093 28.587C22.3582 28.534 22.3582 28.4547 22.3745 28.3862C22.3965 28.3069 22.4834 28.2697 22.5377 28.2118C22.7445 28.0165 23.1361 27.6833 23.2123 27.6889C23.3914 27.7047 23.6475 27.7946 23.805 27.715C23.8376 27.6992 23.8976 27.6465 23.843 27.6148L23.4187 27.3447C23.4169 27.3021 23.4246 27.2597 23.4416 27.2204C23.4585 27.1811 23.4841 27.1459 23.5166 27.1173C23.7124 26.9481 24.0171 27.0646 24.2728 27.0274C24.4523 27.0008 24.6208 26.9323 24.7513 26.811C24.7839 26.9378 24.7024 27.0646 24.7024 27.1965C24.8655 27.3447 25.0344 27.4711 25.1922 27.6141C25.66 28.0682 25.8611 28.729 25.8938 29.3102C25.9211 29.5796 25.9211 29.8542 25.9211 30.3034C25.9973 30.1133 26.0463 29.8332 26.0626 29.5899C26.1332 28.8713 26.019 28.2322 25.6004 27.6878C25.4303 27.4583 25.2371 27.2459 25.0237 27.0536C25.0457 26.8424 25.2305 26.483 25.4047 26.6153C25.5189 26.6997 25.3504 26.8265 25.4699 26.9006C25.6008 26.9795 25.7909 26.9692 25.8725 26.953C26.063 26.9058 26.2478 26.8582 26.4216 26.8424C26.5031 26.8372 26.639 26.8 26.6666 26.8792C26.6883 26.9319 26.6287 26.9692 26.5684 26.9902C26.4978 27.0115 26.3889 26.9957 26.3293 27.0536C26.28 27.1011 26.2318 27.1542 26.2477 27.2227C26.2694 27.302 26.3566 27.3443 26.4439 27.3178C26.7719 27.2297 27.1096 27.18 27.4498 27.1697C27.63 27.1697 27.591 27.2968 27.5044 27.344C27.4448 27.3757 27.3519 27.4022 27.2923 27.4077C26.9717 27.4442 26.7319 27.4656 26.7699 27.6451C26.7968 27.7667 26.9986 27.6503 27.0415 27.7402C27.0909 27.8353 26.955 27.888 26.966 27.9517C26.9986 28.1526 27.3955 28.1102 27.5803 28.0678C27.7162 28.0361 27.9336 27.9307 27.9989 28.0151C28.0592 28.0888 28.0099 28.2053 27.9336 28.2267C27.7374 28.2794 27.4008 28.3745 27.3079 28.4799C27.2207 28.5805 27.3246 28.7865 27.4278 28.7972C27.6619 28.8234 27.9176 28.8234 28.1024 28.8761C28.1723 28.8974 28.2326 28.945 28.2326 29.0187C28.2326 29.098 28.151 29.1245 28.0858 29.1455C27.9602 29.1824 27.7484 29.1824 27.6342 29.2303C27.5963 29.2461 27.52 29.2726 27.531 29.3147C27.5637 29.3939 27.7272 29.3725 27.863 29.3884C27.9393 29.3939 28.0861 29.4521 28.0861 29.5314C28.0861 29.6161 28.0099 29.6423 27.874 29.632C27.6619 29.6161 27.4661 29.6423 27.3739 29.6795C27.3462 29.6898 27.1834 29.7109 27.1884 29.7853C27.1994 29.8749 27.3739 29.817 27.4172 29.9069C27.4551 29.9916 27.3359 30.0388 27.3249 30.1446C27.3249 30.187 27.3466 30.208 27.3902 30.2239C27.5314 30.2817 27.6942 30.2762 27.8364 30.2504C27.9832 30.2239 28.0372 30.4144 27.9992 30.4354C27.8095 30.5356 27.3849 30.4302 27.287 30.4881C27.1511 30.5725 27.5151 30.7627 27.5044 30.8051C27.4934 30.8526 27.4498 30.9002 27.4172 30.9108C27.2324 30.9794 26.9933 30.8471 26.8575 30.9215C26.7433 30.9901 26.7915 31.1644 26.7209 31.2543C26.6337 31.3653 26.4382 31.3177 26.351 31.3811C26.2375 31.46 26.2318 31.6505 26.3566 31.767C26.4549 31.8565 26.5471 31.9196 26.672 31.9782C27.238 32.2528 27.8254 32.5273 28.3748 32.4901C28.6575 32.4746 29.1204 32.4591 29.3758 32.5225C29.7077 32.6014 30.0451 32.8495 30.2189 32.9559C30.36 33.04 30.5888 33.0617 30.7683 32.9976C30.8984 32.9559 30.9857 32.8078 30.9587 32.6806C30.8772 32.2579 30.1586 32.1263 30.1483 31.7036C30.1373 31.2175 30.0937 30.9532 29.9308 30.6466C29.8706 30.5305 29.8603 30.2611 30.0014 30.2242C30.1156 30.1977 30.1539 30.351 30.2458 30.3141C30.6651 30.1556 30.6817 29.511 31.1166 29.3891C31.3716 29.3205 32.2314 29.3102 32.1604 29.2044C31.981 28.9557 32.0629 28.6707 32.1604 28.5385C32.2257 28.454 32.4048 28.3693 32.4765 28.454C32.574 28.565 32.3289 28.6969 32.3456 28.8609C32.3615 29.0142 32.5907 29.3102 32.4162 29.4687C32.3129 29.5638 31.5351 29.5958 31.3063 29.9338C31.1652 30.1394 31.1492 30.3034 31.3173 30.2876C31.4532 30.2717 31.5674 30.1133 31.6929 30.0233C31.916 29.8652 32.0955 29.8015 32.2207 29.9176C32.286 29.9755 32.1987 30.0867 32.0788 30.1184C31.9813 30.1501 31.7423 30.3985 31.8072 30.4619C31.9047 30.5622 32.4488 30.1029 32.585 30.1977C32.6556 30.2504 32.3183 30.5887 32.3779 30.6783C32.4484 30.7892 32.6772 30.6149 32.7478 30.6996C32.851 30.8264 32.5683 31.0748 32.4048 31.1858C32.28 31.2647 32.3286 31.5609 32.1491 31.6509C31.9483 31.746 31.8554 31.9144 31.8774 31.9413C31.899 31.983 31.948 32.0154 32.0242 31.9675C32.2473 31.8304 32.5243 31.6664 32.6386 31.7087C32.7038 31.7353 32.6116 32.036 32.5297 32.1787C32.4477 32.3213 32.8617 32.2421 32.8014 32.3637C32.7584 32.4539 32.7308 32.5911 32.7584 32.7175C32.7911 32.8818 32.3122 32.918 32.2686 33.029C32.22 33.1561 32.3179 33.1878 32.3661 33.1933C32.6549 33.2357 32.6169 33.4941 32.5027 33.605C32.3502 33.7531 32.0891 33.811 31.8604 33.7738C31.6642 33.7421 31.2244 33.6636 30.9634 33.473C30.8818 33.4152 30.7619 33.4569 30.7459 33.5364C30.7293 33.6267 30.8272 33.79 30.8708 33.9275C30.9311 34.1335 30.8977 34.3926 30.8272 34.5938C30.6753 35.011 30.2675 35.3597 30.1532 35.8616C30.1256 35.9936 30.1642 36.1576 30.2185 36.2844C30.3384 36.5596 30.5122 36.818 30.7076 37.0509C30.7353 37.125 30.7736 37.2091 30.741 37.2776C30.6973 37.3834 30.36 37.6108 30.2621 37.701C29.9518 37.9808 29.685 38.3456 29.6255 38.7418C29.6035 38.8845 29.2882 39.0271 29.076 39.085C28.9189 39.1274 28.7554 39.1697 28.6252 39.27C28.6086 39.3857 28.6791 39.4867 28.6951 39.6025C28.7228 39.8036 28.4617 39.9039 28.2599 39.9673C28.1677 39.999 28.0694 40.0259 27.9605 40.0259C27.9226 40.0259 27.912 39.9618 27.9176 39.9304C27.9772 39.6559 28.0311 39.434 28.14 39.2069C28.1836 39.1222 28.2542 39.0536 28.3255 38.9951L29.1026 38.3611L29.7124 37.5105C29.7663 37.4313 29.7886 37.3624 29.7886 37.3045C29.7886 37.1401 29.718 36.9875 29.5982 36.8818C29.4456 36.7491 29.2225 36.7284 29.0544 36.6437C28.837 36.5379 28.521 36.2427 28.4773 36.221C28.3582 36.1631 28.2876 36.3743 28.2709 36.4955C28.2439 36.6806 28.3035 36.8549 28.2979 37.0399C28.2979 37.1246 28.2876 37.1718 28.2439 37.2249C27.7328 37.5102 27.0962 37.6159 26.7206 38.07C26.6553 38.1493 26.5957 38.2344 26.5084 38.2922C26.2963 38.4349 25.9431 38.2712 25.7849 38.4927C25.7143 38.5937 25.7959 38.7256 25.7689 38.8366C25.7526 38.9 25.6274 38.9847 25.5295 39.0316C25.3986 39.0901 25.2578 39.1218 25.1159 39.1325C24.9581 39.0584 25.056 38.8417 25.1103 38.6884C25.1645 38.5296 25.2411 38.3715 25.366 38.2657C25.5508 38.1069 25.7845 37.9064 25.9317 37.8378C26.0566 37.7792 26.2467 37.7792 26.3992 37.7214C26.5598 37.6735 26.7121 37.6023 26.8507 37.5102C27.0731 37.373 27.2803 37.2039 27.4055 36.9713C27.5466 36.7067 27.5303 36.3536 27.3508 36.1262C27.1873 35.9202 26.9976 35.719 26.8887 35.4871C26.8284 35.36 26.872 35.1857 26.9649 35.0692C26.9593 35.0644 26.8936 35.0213 26.856 35.0324C26.0779 35.0647 25.2894 34.98 24.5658 34.6999C24.3753 34.6258 24.1796 34.3878 24.0434 34.3723C23.9185 34.3561 23.8422 34.5094 23.717 34.5411C23.5159 34.5941 23.2545 34.5624 23.0208 34.5411C22.7487 34.5149 22.183 34.3984 21.7751 34.272C21.7099 34.282 21.6393 34.293 21.5793 34.3299C21.4921 34.3878 21.4758 34.5149 21.4704 34.6207C21.4594 34.7633 21.5031 34.8952 21.4864 35.0434C21.4811 35.1175 21.4374 35.1967 21.4594 35.2656C21.4814 35.3497 21.5683 35.3869 21.6279 35.4399C21.7258 35.5295 21.7421 35.7145 21.7421 35.8627C21.7421 36.0263 21.6825 36.2434 21.8237 36.3546C21.911 36.4225 22.0305 36.3333 22.1394 36.3546C22.2589 36.3757 22.2969 36.5183 22.3025 36.6292C22.3082 36.7557 22.1993 37.0247 22.1284 37.0943C22.0794 37.1415 21.9979 37.1043 21.9379 37.0781C21.7804 37.0096 21.6332 36.8986 21.5463 36.7505C21.5084 36.6871 21.5084 36.6079 21.4701 36.5393C21.4101 36.4229 21.3012 36.355 21.1927 36.2754C21.0622 36.18 21.0352 36.0056 21.0132 35.8527C20.9969 35.7093 21.0242 35.5722 21.0352 35.4292C21.0634 35.1465 21.045 34.8612 20.9806 34.5841C20.9317 34.3729 20.8118 34.1614 20.8664 33.9502C20.8937 33.85 20.9643 33.7545 21.0625 33.7121C21.5886 33.6883 22.1095 33.5996 22.6125 33.4482L22.2862 33.1361C22.2046 33.1361 22.1394 33.2153 22.0578 33.2153C21.9705 33.2153 21.851 33.0941 21.8184 33.0517C21.6496 32.8088 21.541 32.528 21.4648 32.2428C21.3942 32.1318 21.3073 32.0212 21.1764 31.9682C21.0856 31.9299 20.9873 31.9118 20.8884 31.9151C20.6163 32.0316 20.3663 32.259 20.3443 32.5497C20.339 32.6238 20.3822 32.6868 20.3716 32.7609C20.3556 32.8874 20.2574 32.9721 20.1648 33.0624C20.0722 33.152 19.9854 33.2419 19.9474 33.3687C19.9144 33.4744 19.9527 33.5854 20.0013 33.6856C20.0339 33.7542 20.0722 33.8227 20.0449 33.8968C19.9797 34.0711 19.5501 34.2506 19.4249 34.2506C19.3813 34.2506 19.3434 34.1928 19.327 34.1449C19.2781 33.986 19.2891 33.8172 19.3217 33.6591C19.4366 33.5381 19.5221 33.3937 19.5718 33.2364C19.6374 33.0252 19.6044 32.7978 19.708 32.6017C19.9797 32.1528 20.6759 31.2547 20.8118 31.1227C20.8717 31.0648 21.0186 31.0328 21.0785 31.07C21.3722 31.255 21.5463 31.4821 21.829 31.6247C21.9815 31.6988 22.1717 31.81 22.3079 31.7043C22.4437 31.5985 22.4653 30.8905 22.5526 30.7107C22.7118 30.3989 23.1524 29.9865 23.4571 29.6537ZM28.8714 25.2524L28.7515 25.6961H28.3163L28.8824 23.6145H29.3772L29.9216 25.6803H29.4857L29.3768 25.2524H28.8714ZM29.3172 24.8745L29.1211 24.0397L28.9363 24.8745H29.3172ZM27.7282 24.213C27.7339 24.0755 27.6903 23.896 27.5764 23.8536C27.4565 23.8113 27.3313 23.8485 27.2771 23.9277C27.1841 24.0755 27.1841 24.2764 27.1898 24.5826C27.1898 24.7677 27.1955 25.0264 27.2334 25.1483C27.3257 25.4281 27.5707 25.4443 27.6899 25.2696C27.7502 25.1852 27.7502 25.0212 27.7445 24.8734H27.4938V24.5668H28.1414V25.6868H27.8318V25.5339C27.8261 25.5445 27.6899 25.6448 27.6247 25.6768C27.5158 25.724 27.3093 25.724 27.1412 25.6555C26.9993 25.5973 26.8635 25.4126 26.8039 25.1745C26.7436 24.9261 26.7706 24.6037 26.7706 24.3291C26.7762 24.0383 26.9341 23.7162 27.1515 23.5946C27.304 23.5101 27.5867 23.5101 27.7658 23.5735C27.984 23.6476 28.1524 23.9539 28.1198 24.213H27.7282ZM20.4415 23.6459C20.6156 23.7517 20.7079 23.9473 20.6759 24.1744H20.3329C20.3329 23.9632 20.2407 23.8626 20.0556 23.8574C19.9414 23.8523 19.7998 23.979 19.7998 24.0741C19.7942 24.3539 20.0499 24.4121 20.2241 24.4648C20.3546 24.502 20.5124 24.5813 20.5887 24.6922C20.7298 24.8931 20.7465 25.1043 20.6323 25.3792C20.578 25.5111 20.3713 25.6696 20.1971 25.7068C20.0013 25.7492 19.7619 25.7282 19.5661 25.5852C19.4083 25.4691 19.3373 25.2417 19.37 25.0357H19.7562C19.7562 25.1363 19.7725 25.21 19.8162 25.2734C19.8488 25.3158 19.9087 25.3843 20.012 25.3895C20.0529 25.3924 20.0941 25.3866 20.1325 25.3723C20.1709 25.358 20.2056 25.3358 20.2341 25.307C20.2626 25.2783 20.2843 25.2438 20.2976 25.206C20.3109 25.1682 20.3154 25.1281 20.311 25.0884C20.2893 24.7659 19.7346 24.7449 19.5441 24.5389C19.3153 24.2853 19.3863 23.8784 19.5711 23.7144C19.8272 23.4822 20.1755 23.4822 20.4415 23.6459ZM31.4248 25.024C31.4305 25.1032 31.4358 25.3833 31.4464 25.5628C31.4521 25.6155 31.5067 25.6844 31.5067 25.6896H31.0988C31.0442 25.6896 31.0385 25.5945 31.0336 25.5156C31.0226 25.3044 31.0439 24.8024 30.8321 24.8024H30.5711V25.6848H30.1632V23.6242H30.8974C31.2673 23.6242 31.4521 23.8305 31.4521 24.1103C31.4521 24.2953 31.4464 24.512 31.229 24.6016C31.3429 24.707 31.4081 24.8655 31.4248 25.024ZM30.8658 23.9215H30.5611V24.4765H30.7842C31.1538 24.4765 31.1485 23.9215 30.8658 23.9215ZM21.6818 25.6934H21.2739V23.9549H20.8061V23.6063H22.155V23.9549H21.6818V25.6934ZM24.308 25.6934V23.9549H23.8401V23.6063H25.1943V23.9549H24.7155V25.6934H24.308ZM25.3781 23.6066H26.7323V23.9604H26.2534V25.6934H25.8459V23.9604H25.3781V23.6066ZM32.4541 23.9608V25.6989H32.0462V23.9608H31.5787V23.607H32.9276V23.9608H32.4541ZM23.2219 25.0946V23.6101H23.6188V25.0577C23.6188 25.9242 22.3242 25.9242 22.3242 25.0843V23.6101H22.7211V25.1001C22.7214 25.4226 23.2219 25.4226 23.2219 25.0946ZM24.1377 26.6536C24.2576 26.5533 24.4257 26.4162 24.6215 26.2946C24.7957 26.1836 24.5999 26.4376 24.5889 26.543C24.5562 26.8282 24.3331 26.8599 24.0884 26.8072C24.0455 26.7965 24.0618 26.717 24.1377 26.6536ZM34.367 33.3149L44.7562 33.3094L45.2183 27.7299L34.367 27.7354V33.3149ZM25.6051 50.6916L14.8895 50.6706C17.0978 52.5992 22.211 56.2078 25.5724 57.6713L25.6051 50.6916ZM17.848 27.5827C17.6412 27.7622 17.228 28.2063 17.1461 28.4068C17.3259 28.4702 17.6792 28.6235 17.848 28.7345V27.5827Z" fill="#0F212D"/>
</svg>
