<svg width="522" height="217" viewBox="0 0 522 217" fill="none" xmlns="http://www.w3.org/2000/svg">
<path fill-rule="evenodd" clip-rule="evenodd" d="M104.581 95.6621C109.093 94.4531 112.94 91.5011 115.276 87.4556C117.612 83.41 118.245 78.6023 117.035 74.0901C115.826 69.5779 112.874 65.7308 108.829 63.3951C104.783 61.0594 99.9757 60.4265 95.4635 61.6355C90.9513 62.8446 87.1042 65.7965 84.7685 69.8421C82.4328 73.8876 81.7999 78.6953 83.0089 83.2075C84.2179 87.7197 87.1699 91.5668 91.2155 93.9025C95.261 96.2382 100.069 96.8712 104.581 95.6621ZM97.7428 70.1422C99.999 69.5376 102.403 69.8541 104.426 71.022C106.448 72.1898 107.924 74.1134 108.529 76.3695C109.133 78.6256 108.817 81.0294 107.649 83.0522C106.481 85.0749 104.558 86.5509 102.302 87.1555C100.045 87.76 97.6416 87.4435 95.6188 86.2757C93.5961 85.1078 92.1201 83.1843 91.5155 80.9282C90.911 78.6721 91.2275 76.2682 92.3953 74.2454C93.5632 72.2227 95.4867 70.7467 97.7428 70.1422Z" fill="#EBE7D9"/>
<path fill-rule="evenodd" clip-rule="evenodd" d="M61.2547 87.0854C67.3474 109.824 100.266 142.405 115.978 138.195C131.698 133.983 143.907 89.3095 137.815 66.5712C131.806 44.1477 109.833 30.4331 88.6256 36.1155C67.4186 41.7979 55.2463 64.6619 61.2547 87.0854ZM129.308 68.8506C134.306 87.5057 123.498 127.063 113.698 129.689C103.907 132.312 74.7622 103.47 69.7613 84.806C64.977 66.9506 74.5297 49.0099 90.905 44.6221C107.28 40.2344 124.524 50.9951 129.308 68.8506Z" fill="#EBE7D9"/>
<path d="M135.26 93.2768C134.126 93.1117 133.1 92.5107 132.402 91.6016C131.704 90.6925 131.388 89.547 131.521 88.4084C131.654 87.2699 132.225 86.228 133.114 85.5044C134.003 84.7807 135.139 84.4322 136.281 84.533C140.108 84.9782 143.791 86.2548 147.073 88.2735C150.354 90.2922 153.154 93.0041 155.277 96.2192L175.742 127.205C178.05 130.7 179.494 134.693 179.955 138.856C180.417 143.019 179.881 147.231 178.394 151.146C176.907 155.062 174.511 158.567 171.402 161.374C168.294 164.181 164.563 166.208 160.516 167.289L91.9528 185.661C87.9088 186.745 83.6653 186.852 79.5718 185.974C75.4783 185.095 71.6522 183.257 68.4087 180.61C65.1653 177.962 62.5973 174.582 60.9166 170.748C59.2358 166.913 58.4904 162.734 58.7417 158.555L60.9637 121.49C61.1981 117.576 62.301 113.763 64.1923 110.327C66.0836 106.892 68.7159 103.921 71.8983 101.629C72.3674 101.291 72.8985 101.049 73.4614 100.916C74.0242 100.783 74.6077 100.762 75.1786 100.855C75.7495 100.947 76.2965 101.151 76.7885 101.455C77.2805 101.759 77.7079 102.157 78.0461 102.626C78.3843 103.095 78.6268 103.626 78.7598 104.189C78.8927 104.752 78.9135 105.336 78.821 105.907C78.7284 106.477 78.5243 107.024 78.2203 107.516C77.9164 108.008 77.5185 108.436 77.0493 108.774C74.9246 110.302 73.1671 112.284 71.9046 114.576C70.642 116.869 69.9062 119.414 69.7505 122.026L67.5286 159.091C67.362 161.877 67.8599 164.663 68.9811 167.218C70.1024 169.774 71.8149 172.027 73.9775 173.791C76.1402 175.555 78.6911 176.78 81.4201 177.365C84.149 177.949 86.9778 177.877 89.6734 177.154L158.254 158.778C160.95 158.056 163.436 156.703 165.506 154.831C167.577 152.959 169.173 150.622 170.162 148.012C171.152 145.402 171.508 142.595 171.2 139.82C170.891 137.046 169.928 134.385 168.39 132.056L147.941 101.066C146.526 98.9237 144.659 97.117 142.472 95.7722C140.284 94.4274 137.83 93.577 135.279 93.2807" fill="#EBE7D9"/>
<path d="M129.021 150.672C157.736 131.129 180.673 125.309 215.231 128.798C255.293 132.841 265.067 177.39 305.301 178.979C348.639 180.691 361.429 122.756 404.378 128.798C434.075 132.975 452.618 144.246 470 168.686" stroke="#F55139" stroke-width="3" stroke-linecap="round" stroke-dasharray="40 40"/>
<g clip-path="url(#clip0_0_1)">
<path d="M472.562 120.079C472.562 113.963 474.992 108.097 479.317 103.772C483.642 99.4465 489.508 97.0167 495.625 97.0167C501.742 97.0167 507.608 99.4465 511.933 103.772C516.258 108.097 518.688 113.963 518.688 120.079C518.688 126.196 516.258 132.062 511.933 136.387C507.608 140.712 501.742 143.142 495.625 143.142C489.508 143.142 483.642 140.712 479.317 136.387C474.992 132.062 472.562 126.196 472.562 120.079ZM495.625 109.829C497.034 109.829 498.188 108.676 498.188 107.267C498.188 105.857 497.034 104.704 495.625 104.704C487.137 104.704 480.25 111.591 480.25 120.079C480.25 121.489 481.403 122.642 482.812 122.642C484.222 122.642 485.375 121.489 485.375 120.079C485.375 114.426 489.971 109.829 495.625 109.829ZM490.5 173.892V147.802C493.889 148.422 497.361 148.422 500.75 147.802V173.892C500.75 176.726 498.46 179.017 495.625 179.017C492.79 179.017 490.5 176.726 490.5 173.892Z" fill="#EBE7D9"/>
</g>
<defs>
<clipPath id="clip0_0_1">
<rect width="51.25" height="82" fill="white" transform="translate(470 97.0167)"/>
</clipPath>
</defs>
</svg>
