<svg width="80" height="64" viewBox="0 0 80 64" fill="none" xmlns="http://www.w3.org/2000/svg">
<path d="M32.2582 0.123138C40.98 -0.186916 49.7104 0.120939 58.4169 0.684972C59.3335 0.765234 60.2622 0.758637 61.1646 0.953246C61.6529 1.07199 62.1805 1.26 62.466 1.70749C62.7265 2.19456 62.732 2.76299 62.7996 3.29954C63.0066 5.93499 63.0677 8.58144 63.2628 11.2169C62.8857 11.2631 62.5085 11.2048 62.1314 11.1927C55.4163 10.842 48.6957 10.5506 41.9696 10.5418C38.4862 10.5517 34.9983 10.5176 31.5182 10.688C30.6745 10.8134 29.7197 11.0982 29.2325 11.8568C31.8658 12.3285 34.4937 12.8375 37.1259 13.318C45.8498 14.965 54.5803 16.5758 63.3042 18.2206C63.2966 19.8896 63.2998 21.5586 63.3031 23.2276C58.3973 22.4085 53.5002 21.5245 48.5976 20.679C38.0502 18.8451 27.5061 16.9859 16.9554 15.1695C16.9761 13.3169 17.0546 11.4654 17.0927 9.61165C17.1592 8.14385 17.1178 6.65625 17.447 5.21483C17.6682 4.19781 18.0781 3.1753 18.8421 2.44854C20.1609 1.13136 22.0683 0.760836 23.8439 0.575024C26.6417 0.313348 29.4516 0.227588 32.2582 0.123138ZM16.9053 17.6071C32.0163 20.4195 47.1218 23.2793 62.2306 26.1083C62.5609 26.1896 62.914 26.1962 63.2312 26.3183L63.2693 26.4062C63.1865 28.9064 63.1385 31.4089 63.0492 33.9091C62.9914 35.4516 62.8301 37.0657 62.0431 38.4246C61.1995 39.8298 59.6278 40.6071 58.0725 40.9007C55.7803 41.335 53.4391 41.3636 51.1175 41.4922C41.1282 41.9496 31.1181 41.6967 21.1452 41.004C20.3484 40.948 19.5375 40.9337 18.7636 40.7105C18.3625 40.5829 17.9484 40.3773 17.7216 40.0035C17.4786 39.5131 17.4633 38.9535 17.4034 38.4191C17.1897 35.5022 17.0764 32.5798 16.9249 29.6596C22.0694 29.9894 27.2227 30.1741 32.377 30.2896C37.3537 30.3709 42.3304 30.3698 47.3071 30.4193C48.3807 30.4644 49.5415 30.2577 50.3557 29.4969C50.4745 29.3594 50.6674 29.2319 50.6478 29.0263C48.4047 28.6865 46.1746 28.2643 43.9359 27.8927C34.9286 26.3392 25.9169 24.7999 16.9107 23.2375C16.8998 21.3607 16.9129 19.4839 16.9053 17.6071Z" fill="#0F212D"/>
<path d="M56.886 54.6891V58.1997H45.8781V57.2108C45.8781 55.678 46.1211 54.6643 47.895 54.6643H56.886V54.6891ZM47.2146 52.5134C44.3229 52.5134 42.9864 54.071 42.9864 56.5927V63.6636H45.8781V60.4001H56.886V63.6388H59.7776V52.5134H47.2146ZM63.3497 52.5134V54.6891H70.1537V63.6388H73.0454V54.6891H79.8493V52.5134H63.3497ZM24.4214 59.3617C24.4214 60.9193 24.7373 61.4879 26.4382 61.4879H38.5153V63.6636H25.7578C22.8662 63.6636 21.5054 62.3285 21.5054 59.8315V52.5134H38.491V54.6891H24.3971V56.8647H37.9078V59.0033H24.3971V59.3741L24.4214 59.3617ZM3.71788 56.395C2.81878 56.3208 2.67298 55.9994 2.67298 55.4555C2.67298 54.961 2.94028 54.6643 3.62068 54.6643H16.9613V52.5134H3.28048C1.33649 52.5134 0 53.2798 0 55.4802C0 57.6806 0.996294 58.447 3.23188 58.6448L14.0453 59.5595C14.8715 59.6337 15.1145 59.9056 15.1145 60.5237C15.1145 61.0924 14.8715 61.4632 14.1182 61.4632H0.534597V63.6388H14.3369C16.7183 63.6388 17.7632 62.6746 17.7632 60.4001C17.7632 58.3234 16.8155 57.4828 14.507 57.285L3.71788 56.395Z" fill="#0F212D"/>
</svg>
