<svg width="48" height="48" viewBox="0 0 48 48" fill="none" xmlns="http://www.w3.org/2000/svg">
<path d="M23.7119 6.32785C22.2768 6.33844 20.741 6.59045 19.1133 7.06313C18.4961 7.26317 18.2633 8.18813 18.7912 8.64663C20.1637 9.71623 21.4853 10.8754 22.6565 12.2973C23.1467 12.9438 22.3266 13.6101 21.7439 12.9948C20.5502 11.6907 19.3349 10.3356 17.0466 8.8347C16.3762 8.35961 15.7396 8.47805 14.9798 8.91525C13.445 9.94085 12.1067 11.0437 10.9032 12.3318C10.5075 12.8325 10.4687 13.6796 11.4367 13.9613C13.0404 14.4306 14.402 15.2389 15.7583 16.0547C16.4261 16.556 15.8461 17.4458 15.1679 17.0482C13.755 16.0956 12.2284 15.2489 10.2829 14.7934C9.60544 14.5619 9.00253 14.9846 8.72929 15.5291C7.91413 17.2003 7.22581 18.7352 6.96768 20.3024C6.84592 21.1809 7.32183 21.4579 8.08161 21.4229C15.2608 21.2535 18.4273 26.993 18.8451 30.603C18.801 31.1397 18.4791 31.6195 17.955 31.6812C17.4914 31.7395 15.8225 31.7777 15.302 31.435L14.0403 30.6835C13.5978 30.4346 12.8926 30.1839 12.5373 30.1733L8.40379 30.2003C7.78827 30.1735 7.6463 30.8611 8.18914 31.1398C10.176 32.3452 11.0437 34.2523 11.3565 35.8637C11.442 36.3187 11.7054 36.3376 12.0005 36.32L12.8595 36.2125C13.5123 36.0875 13.7957 35.9098 13.9867 35.8367L16.0535 35.0583C16.6359 34.8867 17.2152 34.7126 18.0937 34.7631H32.0242C32.4994 34.695 32.7353 35.0876 32.8832 35.6491C33.0827 36.1331 33.3526 36.324 33.9029 36.293C35.6945 36.1005 37.4847 35.9231 39.4858 33.4615C39.5997 33.2938 39.633 33.2715 39.4858 33.0721C38.4852 31.7411 37.2418 30.5127 33.9971 30.1293C33.5172 30.1035 33.2931 30.6231 33.1339 31.0024L32.877 31.4769C32.4814 32.0444 31.3124 31.6485 31.6435 30.7367C35.3703 22.8619 33.6642 13.8744 27.7831 7.65352C27.0478 6.88553 25.9418 6.36795 24.3205 6.33823C24.1196 6.32983 23.9169 6.32634 23.7119 6.32785ZM26.817 25.0466C27.4932 25.0467 28.1418 25.3154 28.6199 25.7936C29.098 26.2719 29.3666 26.9204 29.3666 27.5967C29.3666 28.2729 29.098 28.9215 28.6199 29.3997C28.1418 29.8779 27.4932 30.1466 26.817 30.1467C26.4821 30.1467 26.1505 30.0808 25.8411 29.9526C25.5317 29.8245 25.2506 29.6366 25.0138 29.3998C24.777 29.163 24.5892 28.8819 24.461 28.5725C24.3329 28.2631 24.2669 27.9315 24.267 27.5967C24.2669 27.2618 24.3329 26.9302 24.461 26.6208C24.5892 26.3114 24.777 26.0303 25.0138 25.7935C25.2506 25.5567 25.5317 25.3689 25.8411 25.2407C26.1505 25.1126 26.4821 25.0466 26.817 25.0466Z" fill="#0F212D"/>
<path d="M24.2358 0.44519C21.1646 0.44519 18.1235 1.0501 15.2861 2.22539C12.4487 3.40068 9.87056 5.12333 7.69891 7.29498C5.52726 9.46663 3.80461 12.0448 2.62932 14.8822C1.45403 17.7196 0.849121 20.7607 0.849121 23.8318C0.849121 26.903 1.45403 29.9441 2.62932 32.7815C3.80461 35.6189 5.52726 38.197 7.69891 40.3687C9.87056 42.5403 12.4487 44.263 15.2861 45.4383C18.1235 46.6136 21.1646 47.2185 24.2358 47.2185C27.3069 47.2185 30.348 46.6136 33.1854 45.4383C36.0228 44.263 38.601 42.5403 40.7726 40.3687C42.9443 38.197 44.6669 35.6189 45.8422 32.7815C47.0175 29.9441 47.6224 26.903 47.6224 23.8318C47.6224 20.7607 47.0175 17.7196 45.8422 14.8822C44.6669 12.0448 42.9443 9.46663 40.7726 7.29498C38.601 5.12333 36.0228 3.40068 33.1854 2.22539C30.348 1.0501 27.3069 0.44519 24.2358 0.44519ZM24.2283 5.06365C26.6965 5.06367 29.1406 5.54985 31.421 6.49443C33.7013 7.43901 35.7733 8.82348 37.5186 10.5688C39.2639 12.3142 40.6483 14.3862 41.5928 16.6665C42.5374 18.9469 43.0235 21.391 43.0235 23.8592C43.0234 28.844 41.0432 33.6246 37.5184 37.1494C33.9937 40.6742 29.2131 42.6544 24.2283 42.6544C19.2435 42.6544 14.4629 40.6742 10.9381 37.1494C7.41336 33.6246 5.43315 28.844 5.43311 23.8592C5.43307 21.391 5.9192 18.9469 6.86373 16.6665C7.80826 14.3862 9.19269 12.3142 10.938 10.5688C12.6833 8.82348 14.7553 7.43901 17.0356 6.49443C19.316 5.54985 21.76 5.06367 24.2283 5.06365Z" fill="#0F212D"/>
</svg>
