<svg width="63" height="64" viewBox="0 0 63 64" fill="none" xmlns="http://www.w3.org/2000/svg">
<path d="M31.5 60.4338C15.813 60.4338 2.961 47.5188 2.961 31.8318C2.961 28.3038 3.591 24.9648 4.788 21.8148L21.483 55.3938C21.672 55.8348 21.987 56.2128 22.491 56.2128C22.995 56.2128 23.31 55.8348 23.499 55.3938L31.185 38.1948C31.248 38.0058 31.374 37.8168 31.563 37.8168C31.752 37.8168 31.815 38.0058 31.941 38.1948L39.627 55.3938C39.816 55.8348 40.131 56.2128 40.635 56.2128C41.139 56.2128 41.454 55.8348 41.643 55.3938L58.338 21.8148C59.535 24.9648 60.165 28.3038 60.165 31.8318C60.039 47.5188 47.187 60.4338 31.5 60.4338ZM31.5 25.3428C31.311 25.3428 31.248 25.1538 31.122 24.9648L22.176 4.80479C25.074 3.73379 28.224 3.16679 31.5 3.16679C34.776 3.16679 37.926 3.73379 40.824 4.80479L31.878 24.9648C31.752 25.2168 31.689 25.3428 31.5 25.3428ZM22.365 46.0698C22.176 46.0698 22.113 45.8808 21.987 45.6918L7.497 16.4598C10.08 12.4908 13.545 9.15179 17.766 6.82079L28.224 30.0678C28.35 30.4458 28.665 30.5718 28.98 30.5718H34.02C34.398 30.5718 34.65 30.5088 34.839 30.0678L45.297 6.82079C49.455 9.15179 52.983 12.4908 55.566 16.4598L40.95 45.6918C40.887 45.8808 40.761 46.0698 40.572 46.0698C40.383 46.0698 40.32 45.8808 40.194 45.6918L34.713 33.2178C34.524 32.7768 34.272 32.7138 33.894 32.7138H28.854C28.476 32.7138 28.224 32.7768 28.035 33.2178L22.743 45.6918C22.68 45.8808 22.554 46.0698 22.365 46.0698ZM31.5 63.3318C48.951 63.3318 63 49.2828 63 31.8318C63 14.3808 48.951 0.331787 31.5 0.331787C14.049 0.331787 0 14.3808 0 31.8318C0 49.2828 14.049 63.3318 31.5 63.3318Z" fill="#0F212D"/>
</svg>
