<svg width="319" height="425" viewBox="0 0 319 425" fill="none" xmlns="http://www.w3.org/2000/svg">
<g opacity="0.5" clip-path="url(#clip0_113_2551)">
<path d="M140.965 195.433C139.642 195.068 138.227 195.243 137.031 195.917C135.835 196.592 134.955 197.712 134.582 199.033L124.659 236.065C124.321 237.399 124.525 238.813 125.227 239.997C125.929 241.18 127.071 242.037 128.404 242.38L239.952 272.269C241.278 272.639 242.696 272.468 243.895 271.794C245.095 271.12 245.979 269.998 246.352 268.673L256.275 231.641C256.614 230.307 256.409 228.894 255.708 227.71C255.006 226.526 253.863 225.669 252.53 225.326L140.965 195.433ZM240.933 95.9694C256.171 100.842 266.455 106.863 271.754 115.209C276.989 123.466 278.074 133.68 275.493 146.123L266.086 181.229C265.25 184.21 263.265 186.736 260.567 188.254C257.869 189.772 254.679 190.157 251.698 189.324C250.211 188.945 248.814 188.276 247.586 187.357C246.358 186.438 245.323 185.285 244.54 183.966C243.757 182.646 243.242 181.186 243.024 179.667C242.805 178.148 242.888 176.602 243.268 175.115L252.521 140.649C253.857 134.189 253.393 129.83 251.754 127.237C250.165 124.73 244.203 121.267 234.41 118.104L15.4995 59.4472C6.41967 57.3732 0.119355 57.5152 -3.36039 59.1846C-6.0347 60.4597 -9.04803 65.143 -11.4378 73.9947L-64.2864 271.028C-65.7551 279.857 -65.402 286.106 -63.7415 289.619C-62.4831 292.289 -57.3575 295.995 -49.2404 299.319L170.34 358.155C180.565 361.11 187.038 361.194 189.633 359.682C192.507 357.994 195.763 352.407 198.405 342.546L207.579 308.31C209.225 302.166 215.672 298.528 221.984 300.219C228.279 301.906 232.043 308.28 230.397 314.424L221.224 348.66C217.186 363.728 211.087 374.169 201.911 379.552C192.459 385.094 179.832 384.94 164.135 380.375L-56.5536 321.188C-71.1042 315.423 -80.7654 308.42 -85.1452 299.118C-89.1153 290.698 -89.7222 280.038 -87.3418 265.998L-34.2518 67.8638C-30.2888 53.2073 -23.8169 43.1167 -13.8994 38.3814C-4.79503 34.0024 6.71587 33.7672 21.0394 37.031L240.933 95.9694ZM258.505 203.027C273.907 207.154 283.126 222.705 279.094 237.755L269.171 274.787C265.138 289.838 249.379 298.696 233.977 294.569L122.429 264.68C107.027 260.553 97.8123 244.985 101.841 229.951L111.763 192.919C115.796 177.869 131.555 169.011 146.957 173.138L258.505 203.027ZM166.146 213.089C158.445 211.026 150.586 215.38 148.598 222.796C146.611 230.213 151.241 237.913 158.942 239.976C166.643 242.04 174.502 237.686 176.489 230.269C178.477 222.853 173.852 215.136 166.15 213.073" fill="#0F212D"/>
</g>
<defs>
<clipPath id="clip0_113_2551">
<rect width="346.64" height="346.64" fill="white" transform="translate(-16.1113 0.161514) rotate(15)"/>
</clipPath>
</defs>
</svg>
